<?xml version="1.0" encoding="utf-8"?>
<!-- Generator: Adobe Illustrator 22.0.1, SVG Export Plug-In . SVG Version: 6.00 Build 0)  -->
<svg version="1.1" id="Layer_1" xmlns="http://www.w3.org/2000/svg" xmlns:xlink="http://www.w3.org/1999/xlink" x="0px" y="0px"
	 viewBox="0 0 357.4 121.3" style="enable-background:new 0 0 357.4 121.3;" xml:space="preserve">
<style type="text/css">
	.st0{fill:#FFFFFF;stroke:#000000;}
	.st1{fill:#FFFFFF;}
</style>
<g>
	<path class="st0" d="M326.5,59.3"/>
	<path class="st0" d="M306.5,74.3"/>
	<path class="st1" d="M11.6,62.5h8.7l12.6,27.4l7.4-27.4h9.4l-11.6,43.1H30L16.9,77.3l-7.6,28.3H0L11.6,62.5z"/>
	<path class="st1" d="M65.5,71.2H52.3l2.3-8.7H93l-7.5,8.7H74.9l-9.2,34.4h-9.5L65.5,71.2z"/>
	<path class="st1" d="M86.3,87.5c0-13.7,11.7-25.8,26.2-25.8c8.3,0,13.8,3.5,17.2,9.2l-7.8,5.5c-2.5-3.6-5.4-5.9-10.6-5.9
		c-7.9,0-15.2,7.5-15.2,16.7c0,6.2,4.4,10.4,10.5,10.4c4.2,0,6.9-1.7,10.1-4.2l6.2,6.4c-4.1,3.8-9.1,6.6-16.3,6.6
		C94.8,106.3,86.3,99.1,86.3,87.5z"/>
	<path class="st1" d="M126.3,91.1c0-9.9,8.5-19.1,19.1-19.1c9.8,0,15.9,6.5,15.9,15.3c0,9.9-8.5,19.1-19.1,19.1
		C132.4,106.3,126.3,99.9,126.3,91.1z M152.1,87.5c0-4.8-2.9-7.5-7.1-7.5c-5.7,0-9.5,6.2-9.5,10.8c0,4.8,2.9,7.5,7.1,7.5
		C148.4,98.3,152.1,92.2,152.1,87.5z"/>
	<path class="st1" d="M170.1,72.6h9.4l-0.9,3.4c2.3-2.1,5.3-4.1,9-4.1c5.9,0,9.7,3.6,9.7,9.6c0,1.8-0.6,4.2-1.1,6.3l-4.7,17.7H182
		l4.9-18.1c0.3-0.9,0.4-2.2,0.4-3c0-2.6-1.7-4.1-4.6-4.1c-3.7,0-6.1,2.6-7.1,6.6l-5,18.5h-9.4L170.1,72.6z"/>
	<path class="st1" d="M199.7,91.4c0-10.8,8.9-19.5,19.5-19.5c7.3,0,11.3,3.3,13.5,7.3l-7.1,5.1c-1.7-2.5-3.4-4.3-7.1-4.3
		c-4.9,0-9.5,5.4-9.5,11.5c0,4.2,2.8,7,6.5,7c2.9,0,5-1.2,7.5-3.3l4.8,6.1c-3.4,3.1-7,5.1-12.6,5.1
		C206.1,106.3,199.7,100.4,199.7,91.4z"/>
	<path class="st1" d="M247,98.8c2.5,0,4.6-0.7,7.3-2.6l4.3,5.8c-3,2.5-7.1,4.4-12.7,4.4c-9.5,0-15.3-5.5-15.3-14.7
		c0-9.5,7.8-19.7,19.6-19.7c8.6,0,13.5,5.5,13.5,12.9c0,2.3-0.6,5-1.7,7.5h-22.6C239.8,96.2,242.1,98.8,247,98.8z M254.7,86.5
		c0.2-0.6,0.3-1.4,0.3-2.2c0-2.7-1.6-4.9-5.4-4.9c-4.2,0-7.7,2.8-9.2,7L254.7,86.5L254.7,86.5z"/>
	<path class="st1" d="M271.7,72.6h9.4l-1,3.6c2.8-2.7,5.6-4.2,9.3-4.2c7.2,0,12.7,5.2,12.7,14.2c0,11.7-8.9,20.1-18.2,20.1
		c-5.2,0-8.2-2.1-10.3-5.4l-3.4,11.8l-11.3,8.7L271.7,72.6z M292.4,86.7c0-4.3-2.7-6.9-6.9-6.9c-5.2,0-10,5.2-10,11.5
		c0,4.2,3,7,7.1,7C287.7,98.3,292.4,93.4,292.4,86.7z"/>
	<path class="st1" d="M305.2,99.7c0-1.4,0.2-2.6,0.6-4.1l4-15h-3.9l2.2-8h3.9l0.8-2.9l11.7-8.7l-3.1,11.6h7.8l-2.2,8h-7.8l-3.7,13.9
		c-0.1,0.5-0.3,1.1-0.3,1.5c0,1.2,0.8,2,2.5,2c1.5,0,3.3-0.4,4.8-1l-2.2,7.9c-1.8,0.9-4.2,1.4-6.8,1.4
		C308,106.1,305.2,103.3,305.2,99.7z"/>
	<path class="st1" d="M325.2,100.3l5.4-5.6c3.4,3.4,7.1,4.4,10.1,4.4c2.5,0,3.9-1,3.9-2.9c0-1.2-1.5-2.1-3.8-3.1
		c-5.2-2.2-9.6-4.4-9.6-9.7c0-6.6,5-11.6,13.2-11.6c5.4,0,10.3,2.3,13,4.7l-5,5.9c-3.2-2.5-5.9-3.5-8.6-3.5c-2.3,0-3.6,1-3.6,2.8
		c0,1.3,1.6,2.2,4.4,3.5c4.3,1.9,9,4.2,9,9.4c0,7.2-5.7,11.6-13.5,11.6C335,106.3,329.1,104.4,325.2,100.3z"/>
	<g>
		<polygon class="st1" points="89.9,55.1 54.2,55.1 29.2,27.8 65.7,27.8 		"/>
	</g>
	<polygon class="st1" points="68.3,26.4 92.6,53.6 105,25.1 80.1,0 	"/>
</g>
</svg>
